<svg width="568" height="184" viewBox="0 0 568 184" fill="none" xmlns="http://www.w3.org/2000/svg">
<path d="M187.947 124.104C184.619 124.104 181.419 122.867 178.347 120.392C175.275 118.003 172.63 114.035 170.411 108.488C169.643 106.525 169.088 104.477 168.747 102.344C168.406 100.211 168.235 98.0773 168.235 95.944C168.235 92.4453 168.619 88.9467 169.387 85.448C170.155 81.9493 171.136 78.664 172.331 75.592C173.27 73.3733 174.592 70.8987 176.299 68.168C178.006 65.352 179.627 63.048 181.163 61.256C181.675 60.744 182.315 60.1893 183.083 59.592C183.851 58.9093 184.363 58.568 184.619 58.568C184.704 58.568 184.747 58.6107 184.747 58.696C184.747 58.952 184.022 59.976 182.571 61.768C179.072 66.0347 176.47 70.8987 174.763 76.36C173.142 81.736 172.331 87.0693 172.331 92.36C172.331 95.5173 172.587 98.5467 173.099 101.448C173.696 104.349 174.464 107.037 175.403 109.512C177.195 114.035 179.115 117.277 181.163 119.24C183.296 121.203 185.515 122.184 187.819 122.184C190.72 122.184 193.664 120.947 196.651 118.472C199.638 115.997 202.539 112.712 205.355 108.616C208.256 104.52 210.944 100.083 213.419 95.304C215.894 90.5253 218.027 85.7893 219.819 81.096C221.696 76.3173 223.062 72.0507 223.915 68.296L225.835 60.36C225.408 60.2747 225.195 60.104 225.195 59.848C225.195 59.4213 225.536 58.9947 226.219 58.568C227.243 53.96 228.011 49.4373 228.523 45C229.12 40.5627 229.419 36.4667 229.419 32.712C229.419 28.616 229.035 25.032 228.267 21.96C227.584 18.8027 226.432 16.4133 224.811 14.792C224.128 14.1093 223.36 13.768 222.507 13.768C221.91 13.768 221.27 13.9387 220.587 14.28C219.99 14.6213 219.392 15.048 218.795 15.56C218.198 16.1573 218.112 16.0293 218.539 15.176C219.051 14.2373 219.862 13.2133 220.971 12.104C222.166 10.9947 223.446 10.44 224.811 10.44C225.579 10.44 226.347 10.696 227.115 11.208C229.846 13.0853 231.766 15.944 232.875 19.784C234.07 23.624 234.667 28.0613 234.667 33.096C234.667 36.424 234.454 39.9227 234.027 43.592C233.6 47.2613 233.003 51.016 232.235 54.856C232.406 55.0267 232.534 55.24 232.619 55.496C232.79 55.752 232.96 56.008 233.131 56.264C243.456 52.936 251.734 49.3947 257.963 45.64C264.278 41.8853 268.843 38.088 271.659 34.248C274.56 30.408 276.011 26.7387 276.011 23.24C276.011 19.5707 274.646 16.2853 271.915 13.384C269.184 10.4827 265.43 8.17866 260.651 6.47199C255.872 4.76533 250.368 3.91199 244.139 3.91199C238.336 3.91199 232.32 4.72266 226.091 6.34399C220.459 7.87999 215.083 10.1413 209.963 13.128C204.928 16.0293 200.406 19.272 196.395 22.856C192.47 26.44 189.27 29.9813 186.795 33.48C184.406 36.9787 183.04 40.0507 182.699 42.696C182.528 44.5733 182.187 45.9387 181.675 46.792C181.248 47.6453 180.822 48.072 180.395 48.072C179.115 48.072 178.475 46.536 178.475 43.464C178.475 43.0373 178.475 42.6107 178.475 42.184C178.56 41.7573 178.646 41.3307 178.731 40.904C179.243 37.064 180.95 33.224 183.851 29.384C186.838 25.544 190.592 21.96 195.115 18.632C199.723 15.2187 204.758 12.1893 210.219 9.544C215.68 6.89866 221.142 4.85066 226.603 3.39999C230.102 2.46133 233.515 1.77866 236.843 1.352C240.256 0.925331 243.542 0.711998 246.699 0.711998C253.611 0.711998 259.712 1.65066 265.003 3.52799C270.294 5.40533 274.432 7.96533 277.419 11.208C280.406 14.3653 281.899 17.992 281.899 22.088C281.899 25.5013 280.619 29.128 278.059 32.968C275.499 36.808 271.403 40.648 265.771 44.488C260.139 48.328 252.715 52.04 243.499 55.624C241.622 56.3067 239.915 56.904 238.379 57.416C236.928 57.928 235.606 58.3973 234.411 58.824C236.118 61.896 238.336 65.48 241.067 69.576C243.798 73.672 246.699 77.8107 249.771 81.992C252.928 86.1733 256.043 89.9707 259.115 93.384C262.187 96.7973 264.96 99.4 267.435 101.192C268.971 102.301 270.763 103.411 272.811 104.52C274.944 105.715 276.992 106.312 278.955 106.312C280.918 106.312 282.411 105.757 283.435 104.648C284.459 103.624 285.184 102.301 285.611 100.68C286.038 99.0587 286.251 97.4373 286.251 95.816C286.251 90.2693 284.63 85.1493 281.387 80.456C281.131 80.0293 281.003 79.7733 281.003 79.688C281.003 79.432 281.131 79.304 281.387 79.304C281.899 79.304 282.411 79.6453 282.923 80.328C284.63 82.376 285.995 84.7653 287.019 87.496C288.043 90.2267 288.555 92.9573 288.555 95.688C288.555 99.8693 287.318 103.368 284.843 106.184C282.454 109.085 279.168 110.536 274.987 110.536C270.635 110.536 266.582 109.341 262.827 106.952C259.158 104.563 255.744 101.405 252.587 97.48C249.43 93.5547 246.571 89.3307 244.011 84.808C241.451 80.2 239.19 75.6773 237.227 71.24C235.264 66.8027 233.558 62.8773 232.107 59.464L231.211 59.72C229.846 65.608 228.267 71.3253 226.475 76.872C224.768 82.4187 222.976 87.4533 221.099 91.976C218.795 97.608 215.808 102.856 212.139 107.72C208.555 112.669 204.63 116.637 200.363 119.624C196.182 122.611 192.043 124.104 187.947 124.104ZM299.22 94.664C296.148 94.664 293.46 92.872 291.156 89.288C288.937 85.6187 287.828 79.8587 287.828 72.008C287.828 66.888 288.468 62.792 289.748 59.72C291.028 56.5627 292.607 54.2587 294.484 52.808C296.361 51.3573 298.153 50.632 299.86 50.632C301.567 50.632 303.017 51.2293 304.212 52.424C305.407 53.5333 306.004 55.1547 306.004 57.288C306.004 59.336 305.407 61.512 304.212 63.816C303.017 66.0347 301.567 68.0827 299.86 69.96C298.239 71.752 296.617 72.9467 294.996 73.544C294.655 73.7147 294.228 73.8 293.716 73.8C293.375 73.8 293.204 73.672 293.204 73.416C293.204 72.7333 293.887 71.9653 295.252 71.112C296.959 69.9173 298.58 68.1253 300.116 65.736C301.652 63.2613 302.42 61.0853 302.42 59.208C302.42 58.0987 302.164 57.2453 301.652 56.648C301.14 55.9653 300.543 55.624 299.86 55.624C298.58 55.624 297.172 56.648 295.636 58.696C294.185 60.6587 293.119 64.072 292.436 68.936C292.265 70.3013 292.095 71.624 291.924 72.904C291.839 74.0987 291.796 75.2933 291.796 76.488C291.796 81.2667 292.521 85.0213 293.972 87.752C295.423 90.3973 297.343 91.72 299.732 91.72C301.78 91.72 304.084 90.5253 306.644 88.136C309.204 85.6613 311.721 81.8213 314.196 76.616C314.793 75.2507 315.476 74.568 316.244 74.568C316.756 74.568 317.012 74.9093 317.012 75.592C317.012 76.1893 316.841 76.8293 316.5 77.512C314.281 82.9733 311.593 87.1973 308.436 90.184C305.279 93.1707 302.207 94.664 299.22 94.664ZM319.475 95.56C317.342 95.56 315.464 94.792 313.843 93.256C312.307 91.8053 311.539 89.288 311.539 85.704C311.539 83.8267 311.923 81.5227 312.691 78.792C313.459 75.976 314.483 73.032 315.763 69.96C317.128 66.888 318.664 64.0293 320.371 61.384C322.078 58.7387 323.87 56.5627 325.747 54.856C327.624 53.1493 329.459 52.296 331.251 52.296C332.702 52.296 333.726 52.808 334.323 53.832C335.006 54.856 335.347 55.9653 335.347 57.16C335.347 58.184 335.134 59.1227 334.707 59.976C334.366 60.744 333.854 61.128 333.171 61.128C332.488 61.128 331.976 60.8293 331.635 60.232C331.379 59.5493 331.123 58.9093 330.867 58.312C330.696 57.6293 330.227 57.288 329.459 57.288C327.923 57.288 326.387 58.312 324.851 60.36C323.315 62.3227 321.907 64.84 320.627 67.912C319.347 70.984 318.323 74.1413 317.555 77.384C316.787 80.6267 316.403 83.4853 316.403 85.96C316.403 88.0933 316.659 89.672 317.171 90.696C317.768 91.6347 318.835 92.104 320.371 92.104C322.334 92.104 324.211 91.5493 326.003 90.44C327.88 89.2453 329.587 87.7947 331.123 86.088C332.659 84.3813 333.939 82.76 334.963 81.224C336.072 79.688 336.84 78.536 337.267 77.768C338.291 75.8053 339.102 74.824 339.699 74.824C339.955 74.824 340.083 75.1653 340.083 75.848C340.083 76.7013 339.912 77.5547 339.571 78.408C339.23 79.176 338.888 79.9013 338.547 80.584C337.352 83.144 335.731 85.576 333.683 87.88C331.635 90.0987 329.374 91.9333 326.899 93.384C324.51 94.8347 322.035 95.56 319.475 95.56ZM341.058 91.976C339.522 91.976 338.413 91.336 337.73 90.056C337.047 88.6907 336.706 87.112 336.706 85.32C336.706 83.016 337.09 80.328 337.858 77.256C338.711 74.184 339.821 71.0267 341.186 67.784C342.551 64.456 344.087 61.4267 345.794 58.696C347.586 55.88 349.463 53.6187 351.426 51.912C353.389 50.12 355.309 49.224 357.186 49.224C358.893 49.224 360.343 49.992 361.538 51.528C362.818 52.9787 363.458 54.6427 363.458 56.52C363.458 57.6293 363.287 58.568 362.946 59.336C362.605 60.0187 362.221 60.36 361.794 60.36C361.453 60.36 361.154 60.104 360.898 59.592C360.045 57.6293 359.106 56.2213 358.082 55.368C357.143 54.5147 356.162 54.088 355.138 54.088C353.431 54.088 351.725 55.0693 350.018 57.032C348.397 58.9093 347.074 61.0853 346.05 63.56C345.197 65.4373 344.386 67.6987 343.618 70.344C342.935 72.904 342.338 75.464 341.826 78.024C341.399 80.4987 341.186 82.5467 341.186 84.168C341.186 87.0693 341.869 88.52 343.234 88.52C344.941 88.52 347.117 86.6427 349.762 82.888C351.725 80.1573 353.474 77 355.01 73.416C356.631 69.832 357.997 66.7173 359.106 64.072C359.533 63.2187 360.002 62.664 360.514 62.408C361.026 62.152 361.495 62.024 361.922 62.024C362.946 62.024 363.586 62.4507 363.842 63.304C364.183 64.1573 364.354 64.8827 364.354 65.48C364.354 67.6987 364.141 69.704 363.714 71.496C363.287 73.2027 363.074 75.2933 363.074 77.768C363.074 79.56 363.202 81.224 363.458 82.76C363.799 84.2107 364.354 84.936 365.122 84.936C366.061 84.936 367.255 83.7413 368.706 81.352C369.047 80.6693 369.559 80.328 370.242 80.328C371.01 80.328 371.394 80.712 371.394 81.48C371.394 82.5893 370.626 83.784 369.09 85.064C367.554 86.2587 366.018 86.856 364.482 86.856C362.434 86.856 360.983 86.0027 360.13 84.296C358.679 81.48 357.954 78.9627 357.954 76.744C357.954 74.44 357.911 72.8613 357.826 72.008C357.399 73.032 356.589 74.6533 355.394 76.872C354.199 79.0053 352.791 81.2667 351.17 83.656C349.549 85.96 347.842 87.9227 346.05 89.544C344.258 91.1653 342.594 91.976 341.058 91.976ZM370.459 134.728C369.179 134.728 368.155 133.875 367.387 132.168C366.619 130.547 366.064 128.584 365.723 126.28C365.296 123.976 365.083 121.843 365.083 119.88C365.083 118.941 365.126 117.576 365.211 115.784C365.296 113.992 365.424 112.072 365.595 110.024C365.766 107.976 365.936 106.056 366.107 104.264C366.278 102.472 366.406 101.107 366.491 100.168C367.259 94.3653 368.411 88.776 369.947 83.4C371.483 77.9387 373.147 72.6053 374.939 67.4C375.024 67.2293 375.11 66.9733 375.195 66.632C375.366 66.2907 375.494 66.12 375.579 66.12V65.736C374.726 66.0773 373.616 66.888 372.251 68.168C370.971 69.448 370.032 70.4293 369.435 71.112C368.838 71.7093 368.283 72.3493 367.771 73.032C367.259 73.6293 366.662 73.928 365.979 73.928C365.296 73.928 364.955 73.544 364.955 72.776C364.955 71.8373 365.467 70.8987 366.491 69.96C367.43 68.936 368.496 67.9973 369.691 67.144C370.886 66.2053 372.166 65.352 373.531 64.584C374.982 63.816 376.006 63.2613 376.603 62.92C376.859 62.7493 377.03 62.536 377.115 62.28C377.286 62.024 377.414 61.768 377.499 61.512C378.096 60.5733 378.694 59.6773 379.291 58.824C379.974 57.9707 380.87 57.3733 381.979 57.032C382.747 57.1173 383.6 57.288 384.539 57.544C385.478 57.8 386.032 58.3973 386.203 59.336C386.203 59.6773 386.288 59.848 386.459 59.848V59.976C386.886 59.976 387.398 59.9333 387.995 59.848C388.678 59.6773 389.446 59.592 390.299 59.592C393.627 59.592 396.315 60.4453 398.363 62.152C400.411 63.8587 401.435 66.12 401.435 68.936C401.435 71.5813 400.667 74.44 399.131 77.512C397.595 80.4987 395.931 82.9307 394.139 84.808C391.323 87.624 388.336 90.0987 385.179 92.232C382.107 94.28 379.462 95.304 377.243 95.304C375.878 95.304 374.939 94.92 374.427 94.152C374 93.4693 373.787 92.616 373.787 91.592C373.787 90.1413 374.427 88.6907 375.707 87.24C376.987 85.7893 378.267 84.552 379.547 83.528C380.998 82.3333 382.491 81.224 384.027 80.2C385.648 79.176 387.014 78.3227 388.123 77.64C388.72 77.2133 389.275 76.8293 389.787 76.488C390.384 76.1467 390.896 75.976 391.323 75.976C391.579 75.976 391.707 76.104 391.707 76.36C391.707 76.5307 391.195 76.9573 390.171 77.64C389.232 78.3227 388.422 78.92 387.739 79.432C387.227 79.8587 386.331 80.6267 385.051 81.736C383.771 82.76 382.406 83.9547 380.955 85.32C379.59 86.6 378.395 87.9227 377.371 89.288C376.347 90.6533 375.835 91.848 375.835 92.872C377.2 92.872 378.694 92.3173 380.315 91.208C382.022 90.0133 383.686 88.648 385.307 87.112C387.014 85.576 388.464 84.296 389.659 83.272C390.768 82.248 392.091 80.84 393.627 79.048C395.163 77.256 396.528 75.336 397.723 73.288C398.918 71.24 399.515 69.3627 399.515 67.656C399.515 65.4373 398.662 63.816 396.955 62.792C395.334 61.6827 393.371 61.128 391.067 61.128C390.299 61.128 389.318 61.2133 388.123 61.384C386.928 61.5547 386.203 61.7253 385.947 61.896C384.07 64.7973 382.278 67.7413 380.571 70.728C378.864 73.7147 377.286 76.7867 375.835 79.944C373.446 85.064 371.526 90.2693 370.075 95.56C368.71 100.851 367.814 106.568 367.387 112.712C367.302 114.163 367.174 115.699 367.003 117.32C366.918 118.941 366.918 120.563 367.003 122.184C367.088 123.037 367.259 124.403 367.515 126.28C367.771 128.157 368.198 129.864 368.795 131.4C369.392 132.936 370.203 133.704 371.227 133.704C371.312 133.704 371.483 133.704 371.739 133.704C371.995 133.704 372.123 133.747 372.123 133.832V134.216C371.526 134.557 370.971 134.728 370.459 134.728Z" fill="white"/>
<path d="M231.031 155.408C230.604 155.408 230.22 155.28 229.879 155.024C229.495 154.811 229.303 154.363 229.303 153.68C229.303 152.869 229.666 152.251 230.391 151.824C231.116 151.355 231.778 151.056 232.375 150.928C232.844 150.843 233.314 150.779 233.783 150.736C234.252 150.693 234.722 150.672 235.191 150.672C235.618 150.672 236.023 150.693 236.407 150.736C236.834 150.736 237.239 150.757 237.623 150.8C239.202 149.563 240.716 148.304 242.167 147.024C243.66 145.701 245.132 144.379 246.583 143.056C247.223 142.416 247.863 141.797 248.503 141.2C249.186 140.56 249.826 139.899 250.423 139.216C251.276 138.277 252.172 137.147 253.111 135.824C254.05 134.459 254.86 133.051 255.543 131.6C256.226 130.107 256.567 128.72 256.567 127.44C256.567 126.288 256.226 125.456 255.543 124.944C254.86 124.389 254.028 124.112 253.047 124.112C252.834 124.112 252.599 124.112 252.343 124.112C252.13 124.112 251.916 124.155 251.703 124.24C249.74 124.709 247.863 125.52 246.071 126.672C244.322 127.824 242.914 129.147 241.847 130.64C240.823 132.133 240.396 133.648 240.567 135.184C240.61 135.312 240.716 135.632 240.887 136.144C241.058 136.656 241.058 136.933 240.887 136.976C240.674 137.019 240.46 136.891 240.247 136.592C240.076 136.251 239.927 135.867 239.799 135.44C239.671 135.013 239.586 134.715 239.543 134.544C239.415 133.179 239.756 131.877 240.567 130.64C241.42 129.403 242.508 128.293 243.831 127.312C245.196 126.288 246.604 125.435 248.055 124.752C249.506 124.069 250.743 123.621 251.767 123.408C252.45 123.237 253.239 123.152 254.135 123.152C255.5 123.152 256.716 123.515 257.783 124.24C258.892 124.923 259.447 126.16 259.447 127.952C259.447 129.531 258.956 131.216 257.975 133.008C256.994 134.757 255.714 136.528 254.135 138.32C252.556 140.112 250.85 141.84 249.015 143.504C247.223 145.125 245.474 146.619 243.767 147.984C242.103 149.307 240.674 150.395 239.479 151.248C241.399 151.291 243.404 151.376 245.495 151.504C247.628 151.589 249.655 151.632 251.575 151.632C252.898 151.632 254.114 151.589 255.223 151.504C256.332 151.376 257.271 151.184 258.039 150.928C259.618 150.416 260.727 149.861 261.367 149.264C262.05 148.624 262.391 147.984 262.391 147.344C262.391 146.619 262.05 145.957 261.367 145.36C260.727 144.72 259.916 144.208 258.935 143.824C257.996 143.44 257.036 143.248 256.055 143.248C255.842 143.248 255.735 143.205 255.735 143.12C255.735 142.907 255.927 142.8 256.311 142.8C258.444 142.715 260.108 143.184 261.303 144.208C262.498 145.232 263.095 146.405 263.095 147.728C263.095 148.965 262.498 150.181 261.303 151.376C260.151 152.571 258.274 153.445 255.671 154C254.22 154.299 252.77 154.448 251.319 154.448C248.802 154.448 246.434 154.171 244.215 153.616C242.039 153.019 239.97 152.571 238.007 152.272C237.196 152.827 236.236 153.403 235.127 154C234.018 154.64 232.972 155.067 231.991 155.28C231.82 155.323 231.671 155.344 231.543 155.344C231.372 155.387 231.202 155.408 231.031 155.408ZM231.351 154.704C231.692 154.704 232.076 154.619 232.503 154.448C232.972 154.277 233.484 153.979 234.039 153.552C234.38 153.339 234.679 153.104 234.935 152.848C235.191 152.549 235.468 152.315 235.767 152.144H234.487C234.188 152.144 233.868 152.144 233.527 152.144C233.228 152.144 232.908 152.187 232.567 152.272C231.842 152.443 231.308 152.699 230.967 153.04C230.583 153.339 230.391 153.637 230.391 153.936C230.391 154.448 230.711 154.704 231.351 154.704ZM276.153 152.016C273.209 152.016 270.862 151.205 269.113 149.584C267.406 147.92 266.553 145.595 266.553 142.608C266.553 140.944 266.766 139.387 267.193 137.936C266.894 137.211 266.659 136.464 266.489 135.696C266.361 134.928 266.297 134.139 266.297 133.328C266.297 131.792 266.553 130.469 267.065 129.36C267.577 128.251 268.366 127.141 269.433 126.032C271.438 123.899 273.87 122.32 276.729 121.296C279.63 120.272 282.51 119.76 285.369 119.76C287.118 119.76 288.803 120.101 290.425 120.784C292.089 121.467 293.475 122.469 294.585 123.792C295.737 125.072 296.441 126.651 296.697 128.528C296.782 128.955 296.825 129.381 296.825 129.808C296.825 130.235 296.825 130.683 296.825 131.152C296.825 134.096 296.206 136.869 294.969 139.472C293.774 142.032 292.11 144.293 289.977 146.256C287.886 148.176 285.475 149.669 282.745 150.736C280.569 151.589 278.371 152.016 276.153 152.016ZM275.065 149.776C276.43 149.776 277.774 149.584 279.097 149.2C280.462 148.816 281.742 148.347 282.937 147.792C285.155 146.725 287.267 145.339 289.273 143.632C291.321 141.925 292.985 139.963 294.265 137.744C295.545 135.483 296.185 133.072 296.185 130.512C296.185 130.171 296.163 129.851 296.121 129.552C296.121 129.253 296.099 128.955 296.057 128.656C295.886 127.035 295.225 125.648 294.073 124.496C292.963 123.344 291.619 122.469 290.041 121.872C288.505 121.232 286.947 120.912 285.369 120.912C283.15 120.912 280.974 121.253 278.841 121.936C276.707 122.619 274.787 123.643 273.081 125.008C271.374 126.331 270.009 128.016 268.985 130.064C268.686 130.661 268.43 131.408 268.217 132.304C268.046 133.2 267.961 133.968 267.961 134.608C267.961 134.949 268.003 135.248 268.089 135.504C268.857 134.053 269.902 132.56 271.225 131.024C272.547 129.488 274.083 128.059 275.833 126.736C277.625 125.413 279.523 124.347 281.529 123.536C283.577 122.725 285.689 122.32 287.865 122.32C288.547 122.32 288.889 122.427 288.889 122.64C288.889 122.896 288.505 123.024 287.737 123.024C285.945 123.024 284.067 123.536 282.105 124.56C280.185 125.541 278.329 126.821 276.537 128.4C274.745 129.979 273.166 131.643 271.801 133.392C270.435 135.099 269.433 136.677 268.793 138.128C269.262 139.024 270.073 139.899 271.225 140.752C272.419 141.605 273.763 142.288 275.257 142.8C276.793 143.312 278.265 143.525 279.673 143.44C280.099 143.44 280.312 143.525 280.312 143.696C280.312 143.867 280.078 143.973 279.609 144.016C279.31 144.059 278.99 144.101 278.649 144.144C278.307 144.144 277.987 144.144 277.689 144.144C276.153 144.144 274.745 143.909 273.465 143.44C272.227 142.928 271.161 142.331 270.265 141.648C269.369 140.923 268.707 140.261 268.281 139.664C268.11 140.091 267.918 140.581 267.705 141.136C267.534 141.691 267.449 142.203 267.449 142.672C267.449 145.019 268.131 146.789 269.497 147.984C270.905 149.179 272.761 149.776 275.065 149.776ZM295.406 155.408C294.979 155.408 294.595 155.28 294.254 155.024C293.87 154.811 293.678 154.363 293.678 153.68C293.678 152.869 294.041 152.251 294.766 151.824C295.491 151.355 296.153 151.056 296.75 150.928C297.219 150.843 297.689 150.779 298.158 150.736C298.627 150.693 299.097 150.672 299.566 150.672C299.993 150.672 300.398 150.693 300.782 150.736C301.209 150.736 301.614 150.757 301.998 150.8C303.577 149.563 305.091 148.304 306.542 147.024C308.035 145.701 309.507 144.379 310.958 143.056C311.598 142.416 312.238 141.797 312.878 141.2C313.561 140.56 314.201 139.899 314.798 139.216C315.651 138.277 316.547 137.147 317.486 135.824C318.425 134.459 319.235 133.051 319.918 131.6C320.601 130.107 320.942 128.72 320.942 127.44C320.942 126.288 320.601 125.456 319.918 124.944C319.235 124.389 318.403 124.112 317.422 124.112C317.209 124.112 316.974 124.112 316.718 124.112C316.505 124.112 316.291 124.155 316.078 124.24C314.115 124.709 312.238 125.52 310.446 126.672C308.697 127.824 307.289 129.147 306.222 130.64C305.198 132.133 304.771 133.648 304.942 135.184C304.985 135.312 305.091 135.632 305.262 136.144C305.433 136.656 305.433 136.933 305.262 136.976C305.049 137.019 304.835 136.891 304.622 136.592C304.451 136.251 304.302 135.867 304.174 135.44C304.046 135.013 303.961 134.715 303.918 134.544C303.79 133.179 304.131 131.877 304.942 130.64C305.795 129.403 306.883 128.293 308.206 127.312C309.571 126.288 310.979 125.435 312.43 124.752C313.881 124.069 315.118 123.621 316.142 123.408C316.825 123.237 317.614 123.152 318.51 123.152C319.875 123.152 321.091 123.515 322.158 124.24C323.267 124.923 323.822 126.16 323.822 127.952C323.822 129.531 323.331 131.216 322.35 133.008C321.369 134.757 320.089 136.528 318.51 138.32C316.931 140.112 315.225 141.84 313.39 143.504C311.598 145.125 309.849 146.619 308.142 147.984C306.478 149.307 305.049 150.395 303.854 151.248C305.774 151.291 307.779 151.376 309.87 151.504C312.003 151.589 314.03 151.632 315.95 151.632C317.273 151.632 318.489 151.589 319.598 151.504C320.707 151.376 321.646 151.184 322.414 150.928C323.993 150.416 325.102 149.861 325.742 149.264C326.425 148.624 326.766 147.984 326.766 147.344C326.766 146.619 326.425 145.957 325.742 145.36C325.102 144.72 324.291 144.208 323.31 143.824C322.371 143.44 321.411 143.248 320.43 143.248C320.217 143.248 320.11 143.205 320.11 143.12C320.11 142.907 320.302 142.8 320.686 142.8C322.819 142.715 324.483 143.184 325.678 144.208C326.873 145.232 327.47 146.405 327.47 147.728C327.47 148.965 326.873 150.181 325.678 151.376C324.526 152.571 322.649 153.445 320.046 154C318.595 154.299 317.145 154.448 315.694 154.448C313.177 154.448 310.809 154.171 308.59 153.616C306.414 153.019 304.345 152.571 302.382 152.272C301.571 152.827 300.611 153.403 299.502 154C298.393 154.64 297.347 155.067 296.366 155.28C296.195 155.323 296.046 155.344 295.918 155.344C295.747 155.387 295.577 155.408 295.406 155.408ZM295.726 154.704C296.067 154.704 296.451 154.619 296.878 154.448C297.347 154.277 297.859 153.979 298.414 153.552C298.755 153.339 299.054 153.104 299.31 152.848C299.566 152.549 299.843 152.315 300.142 152.144H298.862C298.563 152.144 298.243 152.144 297.902 152.144C297.603 152.144 297.283 152.187 296.942 152.272C296.217 152.443 295.683 152.699 295.342 153.04C294.958 153.339 294.766 153.637 294.766 153.936C294.766 154.448 295.086 154.704 295.726 154.704ZM327.343 155.408C326.917 155.408 326.533 155.28 326.191 155.024C325.807 154.811 325.615 154.363 325.615 153.68C325.615 152.869 325.978 152.251 326.703 151.824C327.429 151.355 328.09 151.056 328.688 150.928C329.157 150.843 329.626 150.779 330.096 150.736C330.565 150.693 331.034 150.672 331.504 150.672C331.93 150.672 332.336 150.693 332.72 150.736C333.146 150.736 333.552 150.757 333.936 150.8C335.514 149.563 337.029 148.304 338.48 147.024C339.973 145.701 341.445 144.379 342.896 143.056C343.536 142.416 344.176 141.797 344.816 141.2C345.498 140.56 346.138 139.899 346.736 139.216C347.589 138.277 348.485 137.147 349.424 135.824C350.362 134.459 351.173 133.051 351.856 131.6C352.538 130.107 352.88 128.72 352.88 127.44C352.88 126.288 352.538 125.456 351.856 124.944C351.173 124.389 350.341 124.112 349.36 124.112C349.146 124.112 348.912 124.112 348.656 124.112C348.442 124.112 348.229 124.155 348.016 124.24C346.053 124.709 344.176 125.52 342.384 126.672C340.634 127.824 339.226 129.147 338.16 130.64C337.136 132.133 336.709 133.648 336.88 135.184C336.922 135.312 337.029 135.632 337.2 136.144C337.37 136.656 337.37 136.933 337.2 136.976C336.986 137.019 336.773 136.891 336.56 136.592C336.389 136.251 336.24 135.867 336.112 135.44C335.984 135.013 335.898 134.715 335.856 134.544C335.728 133.179 336.069 131.877 336.88 130.64C337.733 129.403 338.821 128.293 340.144 127.312C341.509 126.288 342.917 125.435 344.368 124.752C345.818 124.069 347.056 123.621 348.08 123.408C348.762 123.237 349.552 123.152 350.448 123.152C351.813 123.152 353.029 123.515 354.096 124.24C355.205 124.923 355.76 126.16 355.76 127.952C355.76 129.531 355.269 131.216 354.288 133.008C353.306 134.757 352.026 136.528 350.448 138.32C348.869 140.112 347.162 141.84 345.328 143.504C343.536 145.125 341.786 146.619 340.08 147.984C338.416 149.307 336.986 150.395 335.792 151.248C337.712 151.291 339.717 151.376 341.808 151.504C343.941 151.589 345.968 151.632 347.888 151.632C349.21 151.632 350.426 151.589 351.536 151.504C352.645 151.376 353.584 151.184 354.352 150.928C355.93 150.416 357.04 149.861 357.68 149.264C358.362 148.624 358.704 147.984 358.704 147.344C358.704 146.619 358.362 145.957 357.68 145.36C357.04 144.72 356.229 144.208 355.248 143.824C354.309 143.44 353.349 143.248 352.368 143.248C352.154 143.248 352.048 143.205 352.048 143.12C352.048 142.907 352.24 142.8 352.624 142.8C354.757 142.715 356.421 143.184 357.616 144.208C358.81 145.232 359.408 146.405 359.408 147.728C359.408 148.965 358.81 150.181 357.616 151.376C356.464 152.571 354.586 153.445 351.984 154C350.533 154.299 349.082 154.448 347.632 154.448C345.114 154.448 342.746 154.171 340.528 153.616C338.352 153.019 336.282 152.571 334.32 152.272C333.509 152.827 332.549 153.403 331.44 154C330.33 154.64 329.285 155.067 328.303 155.28C328.133 155.323 327.983 155.344 327.855 155.344C327.685 155.387 327.514 155.408 327.343 155.408ZM327.663 154.704C328.005 154.704 328.389 154.619 328.816 154.448C329.285 154.277 329.797 153.979 330.352 153.552C330.693 153.339 330.992 153.104 331.248 152.848C331.504 152.549 331.781 152.315 332.08 152.144H330.799C330.501 152.144 330.181 152.144 329.84 152.144C329.541 152.144 329.221 152.187 328.88 152.272C328.154 152.443 327.621 152.699 327.279 153.04C326.895 153.339 326.703 153.637 326.703 153.936C326.703 154.448 327.023 154.704 327.663 154.704Z" fill="white"/>
</svg>
