<svg width="682" height="209" viewBox="0 0 682 209" fill="none" xmlns="http://www.w3.org/2000/svg">
<path d="M173.938 13H204.062C210.896 13 216.667 14.0417 221.375 16.125C226.125 18.2083 229.729 21.2917 232.188 25.375C234.688 29.4167 235.938 34.3958 235.938 40.3125C235.938 44.4792 235.083 48.2917 233.375 51.75C231.708 55.1667 229.292 58.0833 226.125 60.5C223 62.875 219.25 64.6458 214.875 65.8125L211.5 67.125H183.188L183.062 57.3125H204.438C208.771 57.3125 212.375 56.5625 215.25 55.0625C218.125 53.5208 220.292 51.4583 221.75 48.875C223.208 46.2917 223.938 43.4375 223.938 40.3125C223.938 36.8125 223.25 33.75 221.875 31.125C220.5 28.5 218.333 26.4792 215.375 25.0625C212.458 23.6042 208.688 22.875 204.062 22.875H186V104H173.938V13ZM227.125 104L205 62.75L217.562 62.6875L240 103.25V104H227.125ZM279.125 105.25C274.417 105.25 270.146 104.458 266.312 102.875C262.521 101.25 259.25 98.9792 256.5 96.0625C253.792 93.1458 251.708 89.6875 250.25 85.6875C248.792 81.6875 248.062 77.3125 248.062 72.5625V69.9375C248.062 64.4375 248.875 59.5417 250.5 55.25C252.125 50.9167 254.333 47.25 257.125 44.25C259.917 41.25 263.083 38.9792 266.625 37.4375C270.167 35.8958 273.833 35.125 277.625 35.125C282.458 35.125 286.625 35.9583 290.125 37.625C293.667 39.2917 296.562 41.625 298.812 44.625C301.062 47.5833 302.729 51.0833 303.812 55.125C304.896 59.125 305.438 63.5 305.438 68.25V73.4375H254.938V64H293.875V63.125C293.708 60.125 293.083 57.2083 292 54.375C290.958 51.5417 289.292 49.2083 287 47.375C284.708 45.5417 281.583 44.625 277.625 44.625C275 44.625 272.583 45.1875 270.375 46.3125C268.167 47.3958 266.271 49.0208 264.688 51.1875C263.104 53.3542 261.875 56 261 59.125C260.125 62.25 259.688 65.8542 259.688 69.9375V72.5625C259.688 75.7708 260.125 78.7917 261 81.625C261.917 84.4167 263.229 86.875 264.938 89C266.688 91.125 268.792 92.7917 271.25 94C273.75 95.2083 276.583 95.8125 279.75 95.8125C283.833 95.8125 287.292 94.9792 290.125 93.3125C292.958 91.6458 295.438 89.4167 297.562 86.625L304.562 92.1875C303.104 94.3958 301.25 96.5 299 98.5C296.75 100.5 293.979 102.125 290.688 103.375C287.438 104.625 283.583 105.25 279.125 105.25ZM346 95.75C348.75 95.75 351.292 95.1875 353.625 94.0625C355.958 92.9375 357.875 91.3958 359.375 89.4375C360.875 87.4375 361.729 85.1667 361.938 82.625H372.938C372.729 86.625 371.375 90.3542 368.875 93.8125C366.417 97.2292 363.188 100 359.188 102.125C355.188 104.208 350.792 105.25 346 105.25C340.917 105.25 336.479 104.354 332.688 102.562C328.938 100.771 325.812 98.3125 323.312 95.1875C320.854 92.0625 319 88.4792 317.75 84.4375C316.542 80.3542 315.938 76.0417 315.938 71.5V68.875C315.938 64.3333 316.542 60.0417 317.75 56C319 51.9167 320.854 48.3125 323.312 45.1875C325.812 42.0625 328.938 39.6042 332.688 37.8125C336.479 36.0208 340.917 35.125 346 35.125C351.292 35.125 355.917 36.2083 359.875 38.375C363.833 40.5 366.938 43.4167 369.188 47.125C371.479 50.7917 372.729 54.9583 372.938 59.625H361.938C361.729 56.8333 360.938 54.3125 359.562 52.0625C358.229 49.8125 356.396 48.0208 354.062 46.6875C351.771 45.3125 349.083 44.625 346 44.625C342.458 44.625 339.479 45.3333 337.062 46.75C334.688 48.125 332.792 50 331.375 52.375C330 54.7083 329 57.3125 328.375 60.1875C327.792 63.0208 327.5 65.9167 327.5 68.875V71.5C327.5 74.4583 327.792 77.375 328.375 80.25C328.958 83.125 329.938 85.7292 331.312 88.0625C332.729 90.3958 334.625 92.2708 337 93.6875C339.417 95.0625 342.417 95.75 346 95.75ZM425.812 92.4375V57.625C425.812 54.9583 425.271 52.6458 424.188 50.6875C423.146 48.6875 421.562 47.1458 419.438 46.0625C417.312 44.9792 414.688 44.4375 411.562 44.4375C408.646 44.4375 406.083 44.9375 403.875 45.9375C401.708 46.9375 400 48.25 398.75 49.875C397.542 51.5 396.938 53.25 396.938 55.125H385.375C385.375 52.7083 386 50.3125 387.25 47.9375C388.5 45.5625 390.292 43.4167 392.625 41.5C395 39.5417 397.833 38 401.125 36.875C404.458 35.7083 408.167 35.125 412.25 35.125C417.167 35.125 421.5 35.9583 425.25 37.625C429.042 39.2917 432 41.8125 434.125 45.1875C436.292 48.5208 437.375 52.7083 437.375 57.75V89.25C437.375 91.5 437.562 93.8958 437.938 96.4375C438.354 98.9792 438.958 101.167 439.75 103V104H427.688C427.104 102.667 426.646 100.896 426.312 98.6875C425.979 96.4375 425.812 94.3542 425.812 92.4375ZM427.812 63L427.938 71.125H416.25C412.958 71.125 410.021 71.3958 407.438 71.9375C404.854 72.4375 402.688 73.2083 400.938 74.25C399.188 75.2917 397.854 76.6042 396.938 78.1875C396.021 79.7292 395.562 81.5417 395.562 83.625C395.562 85.75 396.042 87.6875 397 89.4375C397.958 91.1875 399.396 92.5833 401.312 93.625C403.271 94.625 405.667 95.125 408.5 95.125C412.042 95.125 415.167 94.375 417.875 92.875C420.583 91.375 422.729 89.5417 424.312 87.375C425.938 85.2083 426.812 83.1042 426.938 81.0625L431.875 86.625C431.583 88.375 430.792 90.3125 429.5 92.4375C428.208 94.5625 426.479 96.6042 424.312 98.5625C422.188 100.479 419.646 102.083 416.688 103.375C413.771 104.625 410.479 105.25 406.812 105.25C402.229 105.25 398.208 104.354 394.75 102.562C391.333 100.771 388.667 98.375 386.75 95.375C384.875 92.3333 383.938 88.9375 383.938 85.1875C383.938 81.5625 384.646 78.375 386.062 75.625C387.479 72.8333 389.521 70.5208 392.188 68.6875C394.854 66.8125 398.062 65.3958 401.812 64.4375C405.562 63.4792 409.75 63 414.375 63H427.812ZM467.125 49.375V130H455.5V36.375H466.125L467.125 49.375ZM512.688 69.625V70.9375C512.688 75.8542 512.104 80.4167 510.938 84.625C509.771 88.7917 508.062 92.4167 505.812 95.5C503.604 98.5833 500.875 100.979 497.625 102.688C494.375 104.396 490.646 105.25 486.438 105.25C482.146 105.25 478.354 104.542 475.062 103.125C471.771 101.708 468.979 99.6458 466.688 96.9375C464.396 94.2292 462.562 90.9792 461.188 87.1875C459.854 83.3958 458.938 79.125 458.438 74.375V67.375C458.938 62.375 459.875 57.8958 461.25 53.9375C462.625 49.9792 464.438 46.6042 466.688 43.8125C468.979 40.9792 471.75 38.8333 475 37.375C478.25 35.875 482 35.125 486.25 35.125C490.5 35.125 494.271 35.9583 497.562 37.625C500.854 39.25 503.625 41.5833 505.875 44.625C508.125 47.6667 509.812 51.3125 510.938 55.5625C512.104 59.7708 512.688 64.4583 512.688 69.625ZM501.062 70.9375V69.625C501.062 66.25 500.708 63.0833 500 60.125C499.292 57.125 498.188 54.5 496.688 52.25C495.229 49.9583 493.354 48.1667 491.062 46.875C488.771 45.5417 486.042 44.875 482.875 44.875C479.958 44.875 477.417 45.375 475.25 46.375C473.125 47.375 471.312 48.7292 469.812 50.4375C468.312 52.1042 467.083 54.0208 466.125 56.1875C465.208 58.3125 464.521 60.5208 464.062 62.8125V79C464.896 81.9167 466.062 84.6667 467.562 87.25C469.062 89.7917 471.062 91.8542 473.562 93.4375C476.062 94.9792 479.208 95.75 483 95.75C486.125 95.75 488.812 95.1042 491.062 93.8125C493.354 92.4792 495.229 90.6667 496.688 88.375C498.188 86.0833 499.292 83.4583 500 80.5C500.708 77.5 501.062 74.3125 501.062 70.9375Z" fill="white"/>
<path d="M317.603 170.374V175.124H287.821V170.967L302.728 154.374C304.561 152.332 305.978 150.603 306.978 149.186C307.998 147.749 308.707 146.467 309.103 145.342C309.519 144.196 309.728 143.03 309.728 141.842C309.728 140.342 309.415 138.988 308.79 137.78C308.186 136.551 307.29 135.571 306.103 134.842C304.915 134.113 303.478 133.749 301.79 133.749C299.769 133.749 298.082 134.144 296.728 134.936C295.394 135.707 294.394 136.79 293.728 138.186C293.061 139.582 292.728 141.186 292.728 142.999H286.946C286.946 140.436 287.509 138.092 288.634 135.967C289.759 133.842 291.425 132.155 293.634 130.905C295.842 129.634 298.561 128.999 301.79 128.999C304.665 128.999 307.123 129.509 309.165 130.53C311.207 131.53 312.769 132.946 313.853 134.78C314.957 136.592 315.509 138.717 315.509 141.155C315.509 142.488 315.28 143.842 314.821 145.217C314.384 146.571 313.769 147.926 312.978 149.28C312.207 150.634 311.3 151.967 310.259 153.28C309.238 154.592 308.144 155.884 306.978 157.155L294.79 170.374H317.603ZM352.353 148.749V155.686C352.353 159.415 352.019 162.561 351.353 165.124C350.686 167.686 349.728 169.749 348.478 171.311C347.228 172.874 345.717 174.009 343.946 174.717C342.196 175.405 340.217 175.749 338.009 175.749C336.259 175.749 334.644 175.53 333.165 175.092C331.686 174.655 330.353 173.957 329.165 172.999C327.998 172.019 326.998 170.749 326.165 169.186C325.332 167.624 324.696 165.728 324.259 163.499C323.821 161.269 323.603 158.665 323.603 155.686V148.749C323.603 145.019 323.936 141.894 324.603 139.374C325.29 136.853 326.259 134.832 327.509 133.311C328.759 131.769 330.259 130.665 332.009 129.999C333.78 129.332 335.759 128.999 337.946 128.999C339.717 128.999 341.342 129.217 342.821 129.655C344.321 130.071 345.655 130.749 346.821 131.686C347.988 132.603 348.978 133.832 349.79 135.374C350.623 136.894 351.259 138.759 351.696 140.967C352.134 143.176 352.353 145.769 352.353 148.749ZM346.54 156.624V147.78C346.54 145.738 346.415 143.946 346.165 142.405C345.936 140.842 345.592 139.509 345.134 138.405C344.675 137.301 344.092 136.405 343.384 135.717C342.696 135.03 341.894 134.53 340.978 134.217C340.082 133.884 339.071 133.717 337.946 133.717C336.571 133.717 335.353 133.978 334.29 134.499C333.228 134.999 332.332 135.801 331.603 136.905C330.894 138.009 330.353 139.457 329.978 141.249C329.603 143.04 329.415 145.217 329.415 147.78V156.624C329.415 158.665 329.53 160.467 329.759 162.03C330.009 163.592 330.373 164.946 330.853 166.092C331.332 167.217 331.915 168.144 332.603 168.874C333.29 169.603 334.082 170.144 334.978 170.499C335.894 170.832 336.905 170.999 338.009 170.999C339.425 170.999 340.665 170.728 341.728 170.186C342.79 169.644 343.675 168.801 344.384 167.655C345.113 166.488 345.655 164.999 346.009 163.186C346.363 161.353 346.54 159.165 346.54 156.624ZM389.603 170.374V175.124H359.821V170.967L374.728 154.374C376.561 152.332 377.978 150.603 378.978 149.186C379.998 147.749 380.707 146.467 381.103 145.342C381.519 144.196 381.728 143.03 381.728 141.842C381.728 140.342 381.415 138.988 380.79 137.78C380.186 136.551 379.29 135.571 378.103 134.842C376.915 134.113 375.478 133.749 373.79 133.749C371.769 133.749 370.082 134.144 368.728 134.936C367.394 135.707 366.394 136.79 365.728 138.186C365.061 139.582 364.728 141.186 364.728 142.999H358.946C358.946 140.436 359.509 138.092 360.634 135.967C361.759 133.842 363.425 132.155 365.634 130.905C367.842 129.634 370.561 128.999 373.79 128.999C376.665 128.999 379.123 129.509 381.165 130.53C383.207 131.53 384.769 132.946 385.853 134.78C386.957 136.592 387.509 138.717 387.509 141.155C387.509 142.488 387.28 143.842 386.821 145.217C386.384 146.571 385.769 147.926 384.978 149.28C384.207 150.634 383.3 151.967 382.259 153.28C381.238 154.592 380.144 155.884 378.978 157.155L366.79 170.374H389.603ZM404.228 149.53H408.353C410.373 149.53 412.04 149.196 413.353 148.53C414.686 147.842 415.675 146.915 416.321 145.749C416.988 144.561 417.321 143.228 417.321 141.749C417.321 139.999 417.03 138.53 416.446 137.342C415.863 136.155 414.988 135.259 413.821 134.655C412.655 134.051 411.175 133.749 409.384 133.749C407.759 133.749 406.321 134.071 405.071 134.717C403.842 135.342 402.873 136.238 402.165 137.405C401.478 138.571 401.134 139.946 401.134 141.53H395.353C395.353 139.217 395.936 137.113 397.103 135.217C398.269 133.321 399.905 131.811 402.009 130.686C404.134 129.561 406.592 128.999 409.384 128.999C412.134 128.999 414.54 129.488 416.603 130.467C418.665 131.426 420.269 132.863 421.415 134.78C422.561 136.676 423.134 139.04 423.134 141.874C423.134 143.019 422.863 144.249 422.321 145.561C421.8 146.853 420.978 148.061 419.853 149.186C418.748 150.311 417.311 151.238 415.54 151.967C413.769 152.676 411.644 153.03 409.165 153.03H404.228V149.53ZM404.228 154.28V150.811H409.165C412.061 150.811 414.457 151.155 416.353 151.842C418.248 152.53 419.738 153.446 420.821 154.592C421.925 155.738 422.696 156.999 423.134 158.374C423.592 159.728 423.821 161.082 423.821 162.436C423.821 164.561 423.457 166.446 422.728 168.092C422.019 169.738 421.009 171.134 419.696 172.28C418.405 173.426 416.884 174.29 415.134 174.874C413.384 175.457 411.478 175.749 409.415 175.749C407.436 175.749 405.571 175.467 403.821 174.905C402.092 174.342 400.561 173.53 399.228 172.467C397.894 171.384 396.853 170.061 396.103 168.499C395.353 166.915 394.978 165.113 394.978 163.092H400.759C400.759 164.676 401.103 166.061 401.79 167.249C402.498 168.436 403.498 169.363 404.79 170.03C406.103 170.676 407.644 170.999 409.415 170.999C411.186 170.999 412.707 170.696 413.978 170.092C415.269 169.467 416.259 168.53 416.946 167.28C417.655 166.03 418.009 164.457 418.009 162.561C418.009 160.665 417.613 159.113 416.821 157.905C416.03 156.676 414.905 155.769 413.446 155.186C412.009 154.582 410.311 154.28 408.353 154.28H404.228Z" fill="white"/>
</svg>
