<svg width="682" height="212" viewBox="0 0 682 212" fill="none" xmlns="http://www.w3.org/2000/svg">
<path d="M244.947 124.104C241.619 124.104 238.419 122.867 235.347 120.392C232.275 118.003 229.63 114.035 227.411 108.488C226.643 106.525 226.088 104.477 225.747 102.344C225.406 100.211 225.235 98.0773 225.235 95.944C225.235 92.4453 225.619 88.9467 226.387 85.448C227.155 81.9493 228.136 78.664 229.331 75.592C230.27 73.3733 231.592 70.8987 233.299 68.168C235.006 65.352 236.627 63.048 238.163 61.256C238.675 60.744 239.315 60.1893 240.083 59.592C240.851 58.9093 241.363 58.568 241.619 58.568C241.704 58.568 241.747 58.6107 241.747 58.696C241.747 58.952 241.022 59.976 239.571 61.768C236.072 66.0347 233.47 70.8987 231.763 76.36C230.142 81.736 229.331 87.0693 229.331 92.36C229.331 95.5173 229.587 98.5467 230.099 101.448C230.696 104.349 231.464 107.037 232.403 109.512C234.195 114.035 236.115 117.277 238.163 119.24C240.296 121.203 242.515 122.184 244.819 122.184C247.72 122.184 250.664 120.947 253.651 118.472C256.638 115.997 259.539 112.712 262.355 108.616C265.256 104.52 267.944 100.083 270.419 95.304C272.894 90.5253 275.027 85.7893 276.819 81.096C278.696 76.3173 280.062 72.0507 280.915 68.296L282.835 60.36C282.408 60.2747 282.195 60.104 282.195 59.848C282.195 59.4213 282.536 58.9947 283.219 58.568C284.243 53.96 285.011 49.4373 285.523 45C286.12 40.5627 286.419 36.4667 286.419 32.712C286.419 28.616 286.035 25.032 285.267 21.96C284.584 18.8027 283.432 16.4133 281.811 14.792C281.128 14.1093 280.36 13.768 279.507 13.768C278.91 13.768 278.27 13.9387 277.587 14.28C276.99 14.6213 276.392 15.048 275.795 15.56C275.198 16.1573 275.112 16.0293 275.539 15.176C276.051 14.2373 276.862 13.2133 277.971 12.104C279.166 10.9947 280.446 10.44 281.811 10.44C282.579 10.44 283.347 10.696 284.115 11.208C286.846 13.0853 288.766 15.944 289.875 19.784C291.07 23.624 291.667 28.0613 291.667 33.096C291.667 36.424 291.454 39.9227 291.027 43.592C290.6 47.2613 290.003 51.016 289.235 54.856C289.406 55.0267 289.534 55.24 289.619 55.496C289.79 55.752 289.96 56.008 290.131 56.264C300.456 52.936 308.734 49.3947 314.963 45.64C321.278 41.8853 325.843 38.088 328.659 34.248C331.56 30.408 333.011 26.7387 333.011 23.24C333.011 19.5707 331.646 16.2853 328.915 13.384C326.184 10.4827 322.43 8.17866 317.651 6.47199C312.872 4.76533 307.368 3.91199 301.139 3.91199C295.336 3.91199 289.32 4.72266 283.091 6.34399C277.459 7.87999 272.083 10.1413 266.963 13.128C261.928 16.0293 257.406 19.272 253.395 22.856C249.47 26.44 246.27 29.9813 243.795 33.48C241.406 36.9787 240.04 40.0507 239.699 42.696C239.528 44.5733 239.187 45.9387 238.675 46.792C238.248 47.6453 237.822 48.072 237.395 48.072C236.115 48.072 235.475 46.536 235.475 43.464C235.475 43.0373 235.475 42.6107 235.475 42.184C235.56 41.7573 235.646 41.3307 235.731 40.904C236.243 37.064 237.95 33.224 240.851 29.384C243.838 25.544 247.592 21.96 252.115 18.632C256.723 15.2187 261.758 12.1893 267.219 9.544C272.68 6.89866 278.142 4.85066 283.603 3.39999C287.102 2.46133 290.515 1.77866 293.843 1.352C297.256 0.925331 300.542 0.711998 303.699 0.711998C310.611 0.711998 316.712 1.65066 322.003 3.52799C327.294 5.40533 331.432 7.96533 334.419 11.208C337.406 14.3653 338.899 17.992 338.899 22.088C338.899 25.5013 337.619 29.128 335.059 32.968C332.499 36.808 328.403 40.648 322.771 44.488C317.139 48.328 309.715 52.04 300.499 55.624C298.622 56.3067 296.915 56.904 295.379 57.416C293.928 57.928 292.606 58.3973 291.411 58.824C293.118 61.896 295.336 65.48 298.067 69.576C300.798 73.672 303.699 77.8107 306.771 81.992C309.928 86.1733 313.043 89.9707 316.115 93.384C319.187 96.7973 321.96 99.4 324.435 101.192C325.971 102.301 327.763 103.411 329.811 104.52C331.944 105.715 333.992 106.312 335.955 106.312C337.918 106.312 339.411 105.757 340.435 104.648C341.459 103.624 342.184 102.301 342.611 100.68C343.038 99.0587 343.251 97.4373 343.251 95.816C343.251 90.2693 341.63 85.1493 338.387 80.456C338.131 80.0293 338.003 79.7733 338.003 79.688C338.003 79.432 338.131 79.304 338.387 79.304C338.899 79.304 339.411 79.6453 339.923 80.328C341.63 82.376 342.995 84.7653 344.019 87.496C345.043 90.2267 345.555 92.9573 345.555 95.688C345.555 99.8693 344.318 103.368 341.843 106.184C339.454 109.085 336.168 110.536 331.987 110.536C327.635 110.536 323.582 109.341 319.827 106.952C316.158 104.563 312.744 101.405 309.587 97.48C306.43 93.5547 303.571 89.3307 301.011 84.808C298.451 80.2 296.19 75.6773 294.227 71.24C292.264 66.8027 290.558 62.8773 289.107 59.464L288.211 59.72C286.846 65.608 285.267 71.3253 283.475 76.872C281.768 82.4187 279.976 87.4533 278.099 91.976C275.795 97.608 272.808 102.856 269.139 107.72C265.555 112.669 261.63 116.637 257.363 119.624C253.182 122.611 249.043 124.104 244.947 124.104ZM356.22 94.664C353.148 94.664 350.46 92.872 348.156 89.288C345.937 85.6187 344.828 79.8587 344.828 72.008C344.828 66.888 345.468 62.792 346.748 59.72C348.028 56.5627 349.607 54.2587 351.484 52.808C353.361 51.3573 355.153 50.632 356.86 50.632C358.567 50.632 360.017 51.2293 361.212 52.424C362.407 53.5333 363.004 55.1547 363.004 57.288C363.004 59.336 362.407 61.512 361.212 63.816C360.017 66.0347 358.567 68.0827 356.86 69.96C355.239 71.752 353.617 72.9467 351.996 73.544C351.655 73.7147 351.228 73.8 350.716 73.8C350.375 73.8 350.204 73.672 350.204 73.416C350.204 72.7333 350.887 71.9653 352.252 71.112C353.959 69.9173 355.58 68.1253 357.116 65.736C358.652 63.2613 359.42 61.0853 359.42 59.208C359.42 58.0987 359.164 57.2453 358.652 56.648C358.14 55.9653 357.543 55.624 356.86 55.624C355.58 55.624 354.172 56.648 352.636 58.696C351.185 60.6587 350.119 64.072 349.436 68.936C349.265 70.3013 349.095 71.624 348.924 72.904C348.839 74.0987 348.796 75.2933 348.796 76.488C348.796 81.2667 349.521 85.0213 350.972 87.752C352.423 90.3973 354.343 91.72 356.732 91.72C358.78 91.72 361.084 90.5253 363.644 88.136C366.204 85.6613 368.721 81.8213 371.196 76.616C371.793 75.2507 372.476 74.568 373.244 74.568C373.756 74.568 374.012 74.9093 374.012 75.592C374.012 76.1893 373.841 76.8293 373.5 77.512C371.281 82.9733 368.593 87.1973 365.436 90.184C362.279 93.1707 359.207 94.664 356.22 94.664ZM376.475 95.56C374.342 95.56 372.464 94.792 370.843 93.256C369.307 91.8053 368.539 89.288 368.539 85.704C368.539 83.8267 368.923 81.5227 369.691 78.792C370.459 75.976 371.483 73.032 372.763 69.96C374.128 66.888 375.664 64.0293 377.371 61.384C379.078 58.7387 380.87 56.5627 382.747 54.856C384.624 53.1493 386.459 52.296 388.251 52.296C389.702 52.296 390.726 52.808 391.323 53.832C392.006 54.856 392.347 55.9653 392.347 57.16C392.347 58.184 392.134 59.1227 391.707 59.976C391.366 60.744 390.854 61.128 390.171 61.128C389.488 61.128 388.976 60.8293 388.635 60.232C388.379 59.5493 388.123 58.9093 387.867 58.312C387.696 57.6293 387.227 57.288 386.459 57.288C384.923 57.288 383.387 58.312 381.851 60.36C380.315 62.3227 378.907 64.84 377.627 67.912C376.347 70.984 375.323 74.1413 374.555 77.384C373.787 80.6267 373.403 83.4853 373.403 85.96C373.403 88.0933 373.659 89.672 374.171 90.696C374.768 91.6347 375.835 92.104 377.371 92.104C379.334 92.104 381.211 91.5493 383.003 90.44C384.88 89.2453 386.587 87.7947 388.123 86.088C389.659 84.3813 390.939 82.76 391.963 81.224C393.072 79.688 393.84 78.536 394.267 77.768C395.291 75.8053 396.102 74.824 396.699 74.824C396.955 74.824 397.083 75.1653 397.083 75.848C397.083 76.7013 396.912 77.5547 396.571 78.408C396.23 79.176 395.888 79.9013 395.547 80.584C394.352 83.144 392.731 85.576 390.683 87.88C388.635 90.0987 386.374 91.9333 383.899 93.384C381.51 94.8347 379.035 95.56 376.475 95.56ZM398.058 91.976C396.522 91.976 395.413 91.336 394.73 90.056C394.047 88.6907 393.706 87.112 393.706 85.32C393.706 83.016 394.09 80.328 394.858 77.256C395.711 74.184 396.821 71.0267 398.186 67.784C399.551 64.456 401.087 61.4267 402.794 58.696C404.586 55.88 406.463 53.6187 408.426 51.912C410.389 50.12 412.309 49.224 414.186 49.224C415.893 49.224 417.343 49.992 418.538 51.528C419.818 52.9787 420.458 54.6427 420.458 56.52C420.458 57.6293 420.287 58.568 419.946 59.336C419.605 60.0187 419.221 60.36 418.794 60.36C418.453 60.36 418.154 60.104 417.898 59.592C417.045 57.6293 416.106 56.2213 415.082 55.368C414.143 54.5147 413.162 54.088 412.138 54.088C410.431 54.088 408.725 55.0693 407.018 57.032C405.397 58.9093 404.074 61.0853 403.05 63.56C402.197 65.4373 401.386 67.6987 400.618 70.344C399.935 72.904 399.338 75.464 398.826 78.024C398.399 80.4987 398.186 82.5467 398.186 84.168C398.186 87.0693 398.869 88.52 400.234 88.52C401.941 88.52 404.117 86.6427 406.762 82.888C408.725 80.1573 410.474 77 412.01 73.416C413.631 69.832 414.997 66.7173 416.106 64.072C416.533 63.2187 417.002 62.664 417.514 62.408C418.026 62.152 418.495 62.024 418.922 62.024C419.946 62.024 420.586 62.4507 420.842 63.304C421.183 64.1573 421.354 64.8827 421.354 65.48C421.354 67.6987 421.141 69.704 420.714 71.496C420.287 73.2027 420.074 75.2933 420.074 77.768C420.074 79.56 420.202 81.224 420.458 82.76C420.799 84.2107 421.354 84.936 422.122 84.936C423.061 84.936 424.255 83.7413 425.706 81.352C426.047 80.6693 426.559 80.328 427.242 80.328C428.01 80.328 428.394 80.712 428.394 81.48C428.394 82.5893 427.626 83.784 426.09 85.064C424.554 86.2587 423.018 86.856 421.482 86.856C419.434 86.856 417.983 86.0027 417.13 84.296C415.679 81.48 414.954 78.9627 414.954 76.744C414.954 74.44 414.911 72.8613 414.826 72.008C414.399 73.032 413.589 74.6533 412.394 76.872C411.199 79.0053 409.791 81.2667 408.17 83.656C406.549 85.96 404.842 87.9227 403.05 89.544C401.258 91.1653 399.594 91.976 398.058 91.976ZM427.459 134.728C426.179 134.728 425.155 133.875 424.387 132.168C423.619 130.547 423.064 128.584 422.723 126.28C422.296 123.976 422.083 121.843 422.083 119.88C422.083 118.941 422.126 117.576 422.211 115.784C422.296 113.992 422.424 112.072 422.595 110.024C422.766 107.976 422.936 106.056 423.107 104.264C423.278 102.472 423.406 101.107 423.491 100.168C424.259 94.3653 425.411 88.776 426.947 83.4C428.483 77.9387 430.147 72.6053 431.939 67.4C432.024 67.2293 432.11 66.9733 432.195 66.632C432.366 66.2907 432.494 66.12 432.579 66.12V65.736C431.726 66.0773 430.616 66.888 429.251 68.168C427.971 69.448 427.032 70.4293 426.435 71.112C425.838 71.7093 425.283 72.3493 424.771 73.032C424.259 73.6293 423.662 73.928 422.979 73.928C422.296 73.928 421.955 73.544 421.955 72.776C421.955 71.8373 422.467 70.8987 423.491 69.96C424.43 68.936 425.496 67.9973 426.691 67.144C427.886 66.2053 429.166 65.352 430.531 64.584C431.982 63.816 433.006 63.2613 433.603 62.92C433.859 62.7493 434.03 62.536 434.115 62.28C434.286 62.024 434.414 61.768 434.499 61.512C435.096 60.5733 435.694 59.6773 436.291 58.824C436.974 57.9707 437.87 57.3733 438.979 57.032C439.747 57.1173 440.6 57.288 441.539 57.544C442.478 57.8 443.032 58.3973 443.203 59.336C443.203 59.6773 443.288 59.848 443.459 59.848V59.976C443.886 59.976 444.398 59.9333 444.995 59.848C445.678 59.6773 446.446 59.592 447.299 59.592C450.627 59.592 453.315 60.4453 455.363 62.152C457.411 63.8587 458.435 66.12 458.435 68.936C458.435 71.5813 457.667 74.44 456.131 77.512C454.595 80.4987 452.931 82.9307 451.139 84.808C448.323 87.624 445.336 90.0987 442.179 92.232C439.107 94.28 436.462 95.304 434.243 95.304C432.878 95.304 431.939 94.92 431.427 94.152C431 93.4693 430.787 92.616 430.787 91.592C430.787 90.1413 431.427 88.6907 432.707 87.24C433.987 85.7893 435.267 84.552 436.547 83.528C437.998 82.3333 439.491 81.224 441.027 80.2C442.648 79.176 444.014 78.3227 445.123 77.64C445.72 77.2133 446.275 76.8293 446.787 76.488C447.384 76.1467 447.896 75.976 448.323 75.976C448.579 75.976 448.707 76.104 448.707 76.36C448.707 76.5307 448.195 76.9573 447.171 77.64C446.232 78.3227 445.422 78.92 444.739 79.432C444.227 79.8587 443.331 80.6267 442.051 81.736C440.771 82.76 439.406 83.9547 437.955 85.32C436.59 86.6 435.395 87.9227 434.371 89.288C433.347 90.6533 432.835 91.848 432.835 92.872C434.2 92.872 435.694 92.3173 437.315 91.208C439.022 90.0133 440.686 88.648 442.307 87.112C444.014 85.576 445.464 84.296 446.659 83.272C447.768 82.248 449.091 80.84 450.627 79.048C452.163 77.256 453.528 75.336 454.723 73.288C455.918 71.24 456.515 69.3627 456.515 67.656C456.515 65.4373 455.662 63.816 453.955 62.792C452.334 61.6827 450.371 61.128 448.067 61.128C447.299 61.128 446.318 61.2133 445.123 61.384C443.928 61.5547 443.203 61.7253 442.947 61.896C441.07 64.7973 439.278 67.7413 437.571 70.728C435.864 73.7147 434.286 76.7867 432.835 79.944C430.446 85.064 428.526 90.2693 427.075 95.56C425.71 100.851 424.814 106.568 424.387 112.712C424.302 114.163 424.174 115.699 424.003 117.32C423.918 118.941 423.918 120.563 424.003 122.184C424.088 123.037 424.259 124.403 424.515 126.28C424.771 128.157 425.198 129.864 425.795 131.4C426.392 132.936 427.203 133.704 428.227 133.704C428.312 133.704 428.483 133.704 428.739 133.704C428.995 133.704 429.123 133.747 429.123 133.832V134.216C428.526 134.557 427.971 134.728 427.459 134.728Z" fill="white"/>
<path d="M290.727 172.532C290.301 172.532 289.917 172.404 289.575 172.148C289.191 171.934 288.999 171.486 288.999 170.804C288.999 169.993 289.362 169.374 290.087 168.948C290.813 168.478 291.474 168.18 292.071 168.052C292.541 167.966 293.01 167.902 293.479 167.86C293.949 167.817 294.418 167.796 294.887 167.796C295.314 167.796 295.719 167.817 296.103 167.86C296.53 167.86 296.935 167.881 297.319 167.924C298.898 166.686 300.413 165.428 301.863 164.148C303.357 162.825 304.829 161.502 306.279 160.18C306.919 159.54 307.559 158.921 308.199 158.324C308.882 157.684 309.522 157.022 310.119 156.34C310.973 155.401 311.869 154.27 312.807 152.948C313.746 151.582 314.557 150.174 315.239 148.724C315.922 147.23 316.263 145.844 316.263 144.564C316.263 143.412 315.922 142.58 315.239 142.068C314.557 141.513 313.725 141.236 312.743 141.236C312.53 141.236 312.295 141.236 312.039 141.236C311.826 141.236 311.613 141.278 311.399 141.364C309.437 141.833 307.559 142.644 305.767 143.796C304.018 144.948 302.61 146.27 301.543 147.764C300.519 149.257 300.093 150.772 300.263 152.308C300.306 152.436 300.413 152.756 300.583 153.268C300.754 153.78 300.754 154.057 300.583 154.1C300.37 154.142 300.157 154.014 299.943 153.716C299.773 153.374 299.623 152.99 299.495 152.564C299.367 152.137 299.282 151.838 299.239 151.668C299.111 150.302 299.453 149.001 300.263 147.764C301.117 146.526 302.205 145.417 303.527 144.436C304.893 143.412 306.301 142.558 307.751 141.876C309.202 141.193 310.439 140.745 311.463 140.532C312.146 140.361 312.935 140.276 313.831 140.276C315.197 140.276 316.413 140.638 317.479 141.364C318.589 142.046 319.143 143.284 319.143 145.076C319.143 146.654 318.653 148.34 317.671 150.132C316.69 151.881 315.41 153.652 313.831 155.444C312.253 157.236 310.546 158.964 308.711 160.628C306.919 162.249 305.17 163.742 303.463 165.108C301.799 166.43 300.37 167.518 299.175 168.372C301.095 168.414 303.101 168.5 305.191 168.628C307.325 168.713 309.351 168.756 311.271 168.756C312.594 168.756 313.81 168.713 314.919 168.628C316.029 168.5 316.967 168.308 317.735 168.052C319.314 167.54 320.423 166.985 321.063 166.388C321.746 165.748 322.087 165.108 322.087 164.468C322.087 163.742 321.746 163.081 321.063 162.484C320.423 161.844 319.613 161.332 318.631 160.948C317.693 160.564 316.733 160.372 315.751 160.372C315.538 160.372 315.431 160.329 315.431 160.244C315.431 160.03 315.623 159.924 316.007 159.924C318.141 159.838 319.805 160.308 320.999 161.332C322.194 162.356 322.791 163.529 322.791 164.852C322.791 166.089 322.194 167.305 320.999 168.5C319.847 169.694 317.97 170.569 315.367 171.124C313.917 171.422 312.466 171.572 311.015 171.572C308.498 171.572 306.13 171.294 303.911 170.74C301.735 170.142 299.666 169.694 297.703 169.396C296.893 169.95 295.933 170.526 294.823 171.124C293.714 171.764 292.669 172.19 291.687 172.404C291.517 172.446 291.367 172.468 291.239 172.468C291.069 172.51 290.898 172.532 290.727 172.532ZM291.047 171.828C291.389 171.828 291.773 171.742 292.199 171.572C292.669 171.401 293.181 171.102 293.735 170.676C294.077 170.462 294.375 170.228 294.631 169.972C294.887 169.673 295.165 169.438 295.463 169.268H294.183C293.885 169.268 293.565 169.268 293.223 169.268C292.925 169.268 292.605 169.31 292.263 169.396C291.538 169.566 291.005 169.822 290.663 170.164C290.279 170.462 290.087 170.761 290.087 171.06C290.087 171.572 290.407 171.828 291.047 171.828ZM335.849 169.14C332.905 169.14 330.558 168.329 328.809 166.708C327.102 165.044 326.249 162.718 326.249 159.732C326.249 158.068 326.462 156.51 326.889 155.06C326.59 154.334 326.355 153.588 326.185 152.82C326.057 152.052 325.993 151.262 325.993 150.452C325.993 148.916 326.249 147.593 326.761 146.484C327.273 145.374 328.062 144.265 329.129 143.156C331.134 141.022 333.566 139.444 336.425 138.42C339.326 137.396 342.206 136.884 345.065 136.884C346.814 136.884 348.499 137.225 350.121 137.908C351.785 138.59 353.171 139.593 354.281 140.916C355.433 142.196 356.137 143.774 356.393 145.652C356.478 146.078 356.521 146.505 356.521 146.932C356.521 147.358 356.521 147.806 356.521 148.276C356.521 151.22 355.902 153.993 354.665 156.596C353.47 159.156 351.806 161.417 349.673 163.38C347.582 165.3 345.171 166.793 342.441 167.86C340.265 168.713 338.067 169.14 335.849 169.14ZM334.761 166.9C336.126 166.9 337.47 166.708 338.793 166.324C340.158 165.94 341.438 165.47 342.633 164.916C344.851 163.849 346.963 162.462 348.969 160.756C351.017 159.049 352.681 157.086 353.961 154.868C355.241 152.606 355.881 150.196 355.881 147.636C355.881 147.294 355.859 146.974 355.817 146.676C355.817 146.377 355.795 146.078 355.753 145.78C355.582 144.158 354.921 142.772 353.769 141.62C352.659 140.468 351.315 139.593 349.737 138.996C348.201 138.356 346.643 138.036 345.065 138.036C342.846 138.036 340.67 138.377 338.537 139.06C336.403 139.742 334.483 140.766 332.777 142.132C331.07 143.454 329.705 145.14 328.681 147.188C328.382 147.785 328.126 148.532 327.913 149.428C327.742 150.324 327.657 151.092 327.657 151.732C327.657 152.073 327.699 152.372 327.785 152.628C328.553 151.177 329.598 149.684 330.921 148.148C332.243 146.612 333.779 145.182 335.529 143.86C337.321 142.537 339.219 141.47 341.225 140.66C343.273 139.849 345.385 139.444 347.561 139.444C348.243 139.444 348.585 139.55 348.585 139.764C348.585 140.02 348.201 140.148 347.433 140.148C345.641 140.148 343.763 140.66 341.801 141.684C339.881 142.665 338.025 143.945 336.233 145.524C334.441 147.102 332.862 148.766 331.497 150.516C330.131 152.222 329.129 153.801 328.489 155.252C328.958 156.148 329.769 157.022 330.921 157.876C332.115 158.729 333.459 159.412 334.953 159.924C336.489 160.436 337.961 160.649 339.369 160.564C339.795 160.564 340.009 160.649 340.009 160.82C340.009 160.99 339.774 161.097 339.305 161.14C339.006 161.182 338.686 161.225 338.345 161.268C338.003 161.268 337.683 161.268 337.385 161.268C335.849 161.268 334.441 161.033 333.161 160.564C331.923 160.052 330.857 159.454 329.961 158.772C329.065 158.046 328.403 157.385 327.977 156.788C327.806 157.214 327.614 157.705 327.401 158.26C327.23 158.814 327.145 159.326 327.145 159.796C327.145 162.142 327.827 163.913 329.193 165.108C330.601 166.302 332.457 166.9 334.761 166.9ZM355.102 172.532C354.676 172.532 354.292 172.404 353.95 172.148C353.566 171.934 353.374 171.486 353.374 170.804C353.374 169.993 353.737 169.374 354.462 168.948C355.188 168.478 355.849 168.18 356.446 168.052C356.916 167.966 357.385 167.902 357.854 167.86C358.324 167.817 358.793 167.796 359.262 167.796C359.689 167.796 360.094 167.817 360.478 167.86C360.905 167.86 361.31 167.881 361.694 167.924C363.273 166.686 364.788 165.428 366.238 164.148C367.732 162.825 369.204 161.502 370.654 160.18C371.294 159.54 371.934 158.921 372.574 158.324C373.257 157.684 373.897 157.022 374.494 156.34C375.348 155.401 376.244 154.27 377.182 152.948C378.121 151.582 378.932 150.174 379.614 148.724C380.297 147.23 380.638 145.844 380.638 144.564C380.638 143.412 380.297 142.58 379.614 142.068C378.932 141.513 378.1 141.236 377.118 141.236C376.905 141.236 376.67 141.236 376.414 141.236C376.201 141.236 375.988 141.278 375.774 141.364C373.812 141.833 371.934 142.644 370.142 143.796C368.393 144.948 366.985 146.27 365.918 147.764C364.894 149.257 364.468 150.772 364.638 152.308C364.681 152.436 364.788 152.756 364.958 153.268C365.129 153.78 365.129 154.057 364.958 154.1C364.745 154.142 364.532 154.014 364.318 153.716C364.148 153.374 363.998 152.99 363.87 152.564C363.742 152.137 363.657 151.838 363.614 151.668C363.486 150.302 363.828 149.001 364.638 147.764C365.492 146.526 366.58 145.417 367.902 144.436C369.268 143.412 370.676 142.558 372.126 141.876C373.577 141.193 374.814 140.745 375.838 140.532C376.521 140.361 377.31 140.276 378.206 140.276C379.572 140.276 380.788 140.638 381.854 141.364C382.964 142.046 383.518 143.284 383.518 145.076C383.518 146.654 383.028 148.34 382.046 150.132C381.065 151.881 379.785 153.652 378.206 155.444C376.628 157.236 374.921 158.964 373.086 160.628C371.294 162.249 369.545 163.742 367.838 165.108C366.174 166.43 364.745 167.518 363.55 168.372C365.47 168.414 367.476 168.5 369.566 168.628C371.7 168.713 373.726 168.756 375.646 168.756C376.969 168.756 378.185 168.713 379.294 168.628C380.404 168.5 381.342 168.308 382.11 168.052C383.689 167.54 384.798 166.985 385.438 166.388C386.121 165.748 386.462 165.108 386.462 164.468C386.462 163.742 386.121 163.081 385.438 162.484C384.798 161.844 383.988 161.332 383.006 160.948C382.068 160.564 381.108 160.372 380.126 160.372C379.913 160.372 379.806 160.329 379.806 160.244C379.806 160.03 379.998 159.924 380.382 159.924C382.516 159.838 384.18 160.308 385.374 161.332C386.569 162.356 387.166 163.529 387.166 164.852C387.166 166.089 386.569 167.305 385.374 168.5C384.222 169.694 382.345 170.569 379.742 171.124C378.292 171.422 376.841 171.572 375.39 171.572C372.873 171.572 370.505 171.294 368.286 170.74C366.11 170.142 364.041 169.694 362.078 169.396C361.268 169.95 360.308 170.526 359.198 171.124C358.089 171.764 357.044 172.19 356.062 172.404C355.892 172.446 355.742 172.468 355.614 172.468C355.444 172.51 355.273 172.532 355.102 172.532ZM355.422 171.828C355.764 171.828 356.148 171.742 356.574 171.572C357.044 171.401 357.556 171.102 358.11 170.676C358.452 170.462 358.75 170.228 359.006 169.972C359.262 169.673 359.54 169.438 359.838 169.268H358.558C358.26 169.268 357.94 169.268 357.598 169.268C357.3 169.268 356.98 169.31 356.638 169.396C355.913 169.566 355.38 169.822 355.038 170.164C354.654 170.462 354.462 170.761 354.462 171.06C354.462 171.572 354.782 171.828 355.422 171.828ZM393.568 176.372C392.245 176.372 391.029 176.116 389.92 175.604C388.81 175.134 388.021 174.238 387.552 172.916C387.381 172.532 387.296 172.062 387.296 171.508C387.296 170.484 387.637 169.545 388.32 168.692C388.96 167.796 389.728 167.049 390.624 166.452C391.562 165.854 392.437 165.492 393.248 165.364C393.418 165.321 393.568 165.3 393.696 165.3C393.824 165.3 393.93 165.3 394.016 165.3C394.357 165.3 394.528 165.364 394.528 165.492C394.528 165.705 394.293 165.918 393.824 166.132C393.184 166.388 392.501 166.75 391.776 167.22C391.093 167.646 390.496 168.18 389.984 168.82C389.472 169.417 389.216 170.1 389.216 170.868C389.216 170.996 389.216 171.124 389.216 171.252C389.258 171.422 389.301 171.593 389.344 171.764C389.813 173.129 390.581 174.089 391.648 174.644C392.757 175.198 393.952 175.476 395.232 175.476C396.128 175.476 397.024 175.369 397.92 175.156C398.816 174.942 399.648 174.686 400.416 174.388C402.08 173.748 403.786 172.852 405.536 171.7C407.328 170.59 408.992 169.31 410.528 167.86C412.064 166.409 413.301 164.894 414.24 163.316C415.178 161.694 415.648 160.094 415.648 158.516C415.648 157.748 415.52 157.022 415.264 156.34C414.88 155.188 414.197 154.398 413.216 153.972C412.234 153.545 411.125 153.332 409.888 153.332C408.394 153.332 406.837 153.566 405.216 154.036C403.637 154.462 402.314 154.889 401.248 155.316L400.992 155.38C400.65 155.38 400.416 155.209 400.288 154.868C400.245 154.782 400.224 154.676 400.224 154.548C400.224 154.078 400.458 153.694 400.928 153.396C401.44 153.054 401.973 152.734 402.528 152.436C403.125 152.094 403.701 151.753 404.256 151.412C405.152 150.814 406.176 150.046 407.328 149.108C408.522 148.126 409.61 147.06 410.592 145.908C411.573 144.756 412.17 143.646 412.384 142.58C412.426 142.452 412.448 142.324 412.448 142.196C412.49 142.068 412.512 141.918 412.512 141.748C412.512 141.662 412.49 141.577 412.448 141.492C412.448 141.364 412.426 141.236 412.384 141.108C412.256 140.681 411.957 140.382 411.488 140.212C411.018 140.041 410.442 139.956 409.76 139.956C408.906 139.956 407.904 140.084 406.752 140.34C405.642 140.596 404.533 140.958 403.424 141.428C401.333 142.238 399.584 143.284 398.176 144.564C396.81 145.844 396.128 147.038 396.128 148.148C396.128 148.276 396.128 148.404 396.128 148.532C396.17 148.66 396.213 148.788 396.256 148.916C396.298 149.001 396.32 149.15 396.32 149.364C396.32 149.876 396.106 150.132 395.68 150.132C395.168 150.132 394.762 149.726 394.464 148.916C394.421 148.788 394.378 148.66 394.336 148.532C394.336 148.404 394.336 148.276 394.336 148.148C394.336 147.294 394.677 146.462 395.36 145.652C396.042 144.798 396.874 144.009 397.856 143.284C398.88 142.558 399.861 141.94 400.8 141.428C401.781 140.873 402.528 140.489 403.04 140.276C403.765 139.934 404.725 139.636 405.92 139.38C407.157 139.081 408.352 138.932 409.504 138.932C410.57 138.932 411.509 139.102 412.32 139.444C413.173 139.785 413.749 140.404 414.048 141.3C414.218 141.769 414.304 142.26 414.304 142.772C414.304 143.966 413.898 145.14 413.088 146.292C412.277 147.401 411.296 148.425 410.144 149.364C408.992 150.26 407.925 151.028 406.944 151.668C407.584 151.54 408.266 151.433 408.992 151.348C409.717 151.262 410.421 151.22 411.104 151.22C412.597 151.22 413.984 151.497 415.264 152.052C416.586 152.606 417.504 153.63 418.016 155.124C418.314 155.977 418.464 156.852 418.464 157.748C418.464 159.625 417.888 161.438 416.736 163.188C415.626 164.894 414.197 166.494 412.448 167.988C410.741 169.481 408.949 170.782 407.072 171.892C405.194 173.001 403.509 173.876 402.016 174.516C401.034 174.942 399.754 175.348 398.176 175.732C396.64 176.158 395.104 176.372 393.568 176.372Z" fill="white"/>
</svg>
