<svg width="176" height="102" viewBox="0 0 176 102" fill="none" xmlns="http://www.w3.org/2000/svg">
<path d="M14.9603 93.328C12.4643 93.328 10.0643 92.4 7.76025 90.544C5.45625 88.752 3.47225 85.776 1.80825 81.616C1.23225 80.144 0.81625 78.608 0.56025 77.008C0.30425 75.408 0.17625 73.808 0.17625 72.208C0.17625 69.584 0.46425 66.96 1.04025 64.336C1.61625 61.712 2.35225 59.248 3.24825 56.944C3.95225 55.28 4.94425 53.424 6.22425 51.376C7.50425 49.264 8.72025 47.536 9.87225 46.192C10.2563 45.808 10.7363 45.392 11.3123 44.944C11.8883 44.432 12.2723 44.176 12.4643 44.176C12.5283 44.176 12.5603 44.208 12.5603 44.272C12.5603 44.464 12.0163 45.232 10.9283 46.576C8.30425 49.776 6.35225 53.424 5.07225 57.52C3.85625 61.552 3.24825 65.552 3.24825 69.52C3.24825 71.888 3.44025 74.16 3.82425 76.336C4.27225 78.512 4.84825 80.528 5.55225 82.384C6.89625 85.776 8.33625 88.208 9.87225 89.68C11.4723 91.152 13.1363 91.888 14.8643 91.888C17.0403 91.888 19.2483 90.96 21.4883 89.104C23.7283 87.248 25.9043 84.784 28.0163 81.712C30.1923 78.64 32.2083 75.312 34.0643 71.728C35.9203 68.144 37.5203 64.592 38.8643 61.072C40.2723 57.488 41.2963 54.288 41.9363 51.472L43.3763 45.52C43.0563 45.456 42.8963 45.328 42.8963 45.136C42.8963 44.816 43.1523 44.496 43.6643 44.176C44.4323 40.72 45.0083 37.328 45.3923 34C45.8403 30.672 46.0643 27.6 46.0643 24.784C46.0643 21.712 45.7763 19.024 45.2003 16.72C44.6883 14.352 43.8243 12.56 42.6083 11.344C42.0963 10.832 41.5203 10.576 40.8803 10.576C40.4323 10.576 39.9523 10.704 39.4403 10.96C38.9923 11.216 38.5443 11.536 38.0963 11.92C37.6483 12.368 37.5843 12.272 37.9043 11.632C38.2883 10.928 38.8963 10.16 39.7283 9.328C40.6243 8.496 41.5843 8.08 42.6083 8.08C43.1843 8.08 43.7603 8.272 44.3363 8.65599C46.3843 10.064 47.8243 12.208 48.6562 15.088C49.5522 17.968 50.0002 21.296 50.0002 25.072C50.0002 27.568 49.8403 30.192 49.5203 32.944C49.2003 35.696 48.7523 38.512 48.1763 41.392C48.3043 41.52 48.4003 41.68 48.4643 41.872C48.5923 42.064 48.7203 42.256 48.8483 42.448C56.5923 39.952 62.8003 37.296 67.4723 34.48C72.2083 31.664 75.6323 28.816 77.7443 25.936C79.9203 23.056 81.0083 20.304 81.0083 17.68C81.0083 14.928 79.9843 12.464 77.9363 10.288C75.8883 8.112 73.0723 6.384 69.4883 5.10399C65.9043 3.824 61.7763 3.184 57.1042 3.184C52.7523 3.184 48.2403 3.792 43.5683 5.008C39.3443 6.16 35.3123 7.856 31.4723 10.096C27.6963 12.272 24.3043 14.704 21.2963 17.392C18.3523 20.08 15.9523 22.736 14.0963 25.36C12.3043 27.984 11.2803 30.288 11.0243 32.272C10.8963 33.68 10.6403 34.704 10.2563 35.344C9.93625 35.984 9.61625 36.304 9.29625 36.304C8.33625 36.304 7.85625 35.152 7.85625 32.848C7.85625 32.528 7.85625 32.208 7.85625 31.888C7.92025 31.568 7.98425 31.248 8.04825 30.928C8.43225 28.048 9.71225 25.168 11.8883 22.288C14.1283 19.408 16.9443 16.72 20.3363 14.224C23.7923 11.664 27.5683 9.392 31.6643 7.408C35.7603 5.424 39.8563 3.888 43.9523 2.8C46.5763 2.096 49.1363 1.584 51.6323 1.264C54.1923 0.943998 56.6563 0.783998 59.0243 0.783998C64.2083 0.783998 68.7843 1.488 72.7523 2.89599C76.7203 4.304 79.8243 6.224 82.0643 8.65599C84.3043 11.024 85.4243 13.744 85.4243 16.816C85.4243 19.376 84.4643 22.096 82.5443 24.976C80.6243 27.856 77.5523 30.736 73.3283 33.616C69.1043 36.496 63.5363 39.28 56.6243 41.968C55.2163 42.48 53.9363 42.928 52.7843 43.312C51.6963 43.696 50.7043 44.048 49.8083 44.368C51.0883 46.672 52.7523 49.36 54.8003 52.432C56.8483 55.504 59.0243 58.608 61.3283 61.744C63.6963 64.88 66.0323 67.728 68.3363 70.288C70.6403 72.848 72.7203 74.8 74.5763 76.144C75.7283 76.976 77.0723 77.808 78.6083 78.64C80.2083 79.536 81.7443 79.984 83.2163 79.984C84.6883 79.984 85.8083 79.568 86.5763 78.736C87.3443 77.968 87.8883 76.976 88.2083 75.76C88.5283 74.544 88.6883 73.328 88.6883 72.112C88.6883 67.952 87.4723 64.112 85.0403 60.592C84.8483 60.272 84.7523 60.08 84.7523 60.016C84.7523 59.824 84.8483 59.728 85.0403 59.728C85.4243 59.728 85.8083 59.984 86.1923 60.496C87.4723 62.032 88.4963 63.824 89.2643 65.872C90.0323 67.92 90.4163 69.968 90.4163 72.016C90.4163 75.152 89.4883 77.776 87.6323 79.888C85.8403 82.064 83.3763 83.152 80.2403 83.152C76.9763 83.152 73.9363 82.256 71.1203 80.464C68.3683 78.672 65.8083 76.304 63.4403 73.36C61.0723 70.416 58.9283 67.248 57.0083 63.856C55.0883 60.4 53.3923 57.008 51.9203 53.68C50.4483 50.352 49.1683 47.408 48.0803 44.848L47.4083 45.04C46.3843 49.456 45.2003 53.744 43.8563 57.904C42.5763 62.064 41.2323 65.84 39.8243 69.232C38.0963 73.456 35.8563 77.392 33.1043 81.04C30.4163 84.752 27.4723 87.728 24.2723 89.968C21.1363 92.208 18.0323 93.328 14.9603 93.328ZM98.415 71.248C96.111 71.248 94.095 69.904 92.367 67.216C90.703 64.464 89.871 60.144 89.871 54.256C89.871 50.416 90.351 47.344 91.311 45.04C92.271 42.672 93.455 40.944 94.863 39.856C96.271 38.768 97.615 38.224 98.895 38.224C100.175 38.224 101.263 38.672 102.159 39.568C103.055 40.4 103.503 41.616 103.503 43.216C103.503 44.752 103.055 46.384 102.159 48.112C101.263 49.776 100.175 51.312 98.895 52.72C97.679 54.064 96.463 54.96 95.247 55.408C94.991 55.536 94.671 55.6 94.287 55.6C94.031 55.6 93.903 55.504 93.903 55.312C93.903 54.8 94.415 54.224 95.439 53.584C96.719 52.688 97.935 51.344 99.087 49.552C100.239 47.696 100.815 46.064 100.815 44.656C100.815 43.824 100.623 43.184 100.239 42.736C99.855 42.224 99.407 41.968 98.895 41.968C97.935 41.968 96.879 42.736 95.727 44.272C94.639 45.744 93.839 48.304 93.327 51.952C93.199 52.976 93.071 53.968 92.943 54.928C92.879 55.824 92.847 56.72 92.847 57.616C92.847 61.2 93.391 64.016 94.479 66.064C95.567 68.048 97.007 69.04 98.799 69.04C100.335 69.04 102.063 68.144 103.983 66.352C105.903 64.496 107.791 61.616 109.647 57.712C110.095 56.688 110.607 56.176 111.183 56.176C111.567 56.176 111.759 56.432 111.759 56.944C111.759 57.392 111.631 57.872 111.375 58.384C109.711 62.48 107.695 65.648 105.327 67.888C102.959 70.128 100.655 71.248 98.415 71.248ZM113.606 71.92C112.006 71.92 110.598 71.344 109.382 70.192C108.23 69.104 107.654 67.216 107.654 64.528C107.654 63.12 107.942 61.392 108.518 59.344C109.094 57.232 109.862 55.024 110.822 52.72C111.846 50.416 112.998 48.272 114.278 46.288C115.558 44.304 116.902 42.672 118.31 41.392C119.718 40.112 121.094 39.472 122.438 39.472C123.526 39.472 124.294 39.856 124.742 40.624C125.254 41.392 125.51 42.224 125.51 43.12C125.51 43.888 125.35 44.592 125.03 45.232C124.774 45.808 124.39 46.096 123.878 46.096C123.366 46.096 122.982 45.872 122.726 45.424C122.534 44.912 122.342 44.432 122.15 43.984C122.022 43.472 121.67 43.216 121.094 43.216C119.942 43.216 118.79 43.984 117.638 45.52C116.486 46.992 115.43 48.88 114.47 51.184C113.51 53.488 112.742 55.856 112.166 58.288C111.59 60.72 111.302 62.864 111.302 64.72C111.302 66.32 111.494 67.504 111.878 68.272C112.326 68.976 113.126 69.328 114.278 69.328C115.75 69.328 117.158 68.912 118.502 68.08C119.91 67.184 121.19 66.096 122.342 64.816C123.494 63.536 124.454 62.32 125.222 61.168C126.054 60.016 126.63 59.152 126.95 58.576C127.718 57.104 128.326 56.368 128.774 56.368C128.966 56.368 129.062 56.624 129.062 57.136C129.062 57.776 128.934 58.416 128.678 59.056C128.422 59.632 128.166 60.176 127.91 60.688C127.014 62.608 125.798 64.432 124.262 66.16C122.726 67.824 121.03 69.2 119.174 70.288C117.382 71.376 115.526 71.92 113.606 71.92ZM129.794 69.232C128.642 69.232 127.81 68.752 127.298 67.792C126.786 66.768 126.53 65.584 126.53 64.24C126.53 62.512 126.818 60.496 127.394 58.192C128.034 55.888 128.866 53.52 129.89 51.088C130.914 48.592 132.066 46.32 133.346 44.272C134.69 42.16 136.098 40.464 137.57 39.184C139.042 37.84 140.482 37.168 141.89 37.168C143.17 37.168 144.258 37.744 145.154 38.896C146.114 39.984 146.594 41.232 146.594 42.64C146.594 43.472 146.466 44.176 146.21 44.752C145.954 45.264 145.666 45.52 145.346 45.52C145.09 45.52 144.866 45.328 144.674 44.944C144.034 43.472 143.33 42.416 142.562 41.776C141.858 41.136 141.122 40.816 140.354 40.816C139.074 40.816 137.794 41.552 136.514 43.024C135.298 44.432 134.306 46.064 133.538 47.92C132.898 49.328 132.29 51.024 131.714 53.008C131.202 54.928 130.754 56.848 130.37 58.768C130.05 60.624 129.89 62.16 129.89 63.376C129.89 65.552 130.402 66.64 131.426 66.64C132.706 66.64 134.338 65.232 136.322 62.416C137.794 60.368 139.106 58 140.258 55.312C141.474 52.624 142.498 50.288 143.33 48.304C143.65 47.664 144.002 47.248 144.386 47.056C144.77 46.864 145.122 46.768 145.442 46.768C146.21 46.768 146.69 47.088 146.882 47.728C147.138 48.368 147.266 48.912 147.266 49.36C147.266 51.024 147.106 52.528 146.786 53.872C146.466 55.152 146.306 56.72 146.306 58.576C146.306 59.92 146.402 61.168 146.594 62.32C146.85 63.408 147.266 63.952 147.842 63.952C148.546 63.952 149.442 63.056 150.53 61.264C150.786 60.752 151.17 60.496 151.682 60.496C152.258 60.496 152.546 60.784 152.546 61.36C152.546 62.192 151.97 63.088 150.818 64.048C149.666 64.944 148.514 65.392 147.362 65.392C145.826 65.392 144.738 64.752 144.098 63.472C143.01 61.36 142.466 59.472 142.466 57.808C142.466 56.08 142.434 54.896 142.37 54.256C142.05 55.024 141.442 56.24 140.546 57.904C139.65 59.504 138.594 61.2 137.378 62.992C136.162 64.72 134.882 66.192 133.538 67.408C132.194 68.624 130.946 69.232 129.794 69.232ZM151.844 101.296C150.884 101.296 150.116 100.656 149.54 99.376C148.964 98.16 148.548 96.688 148.292 94.96C147.972 93.232 147.812 91.632 147.812 90.16C147.812 89.456 147.844 88.432 147.908 87.088C147.972 85.744 148.068 84.304 148.196 82.768C148.324 81.232 148.452 79.792 148.58 78.448C148.708 77.104 148.804 76.08 148.868 75.376C149.444 71.024 150.308 66.832 151.46 62.8C152.612 58.704 153.86 54.704 155.204 50.8C155.268 50.672 155.332 50.48 155.396 50.224C155.524 49.968 155.62 49.84 155.684 49.84V49.552C155.044 49.808 154.212 50.416 153.188 51.376C152.228 52.336 151.524 53.072 151.076 53.584C150.628 54.032 150.212 54.512 149.828 55.024C149.444 55.472 148.996 55.696 148.484 55.696C147.972 55.696 147.716 55.408 147.716 54.832C147.716 54.128 148.1 53.424 148.868 52.72C149.572 51.952 150.372 51.248 151.268 50.608C152.164 49.904 153.124 49.264 154.148 48.688C155.236 48.112 156.004 47.696 156.452 47.44C156.644 47.312 156.772 47.152 156.836 46.96C156.964 46.768 157.06 46.576 157.124 46.384C157.572 45.68 158.02 45.008 158.468 44.368C158.98 43.728 159.652 43.28 160.484 43.024C161.06 43.088 161.7 43.216 162.404 43.408C163.108 43.6 163.524 44.048 163.652 44.752C163.652 45.008 163.716 45.136 163.844 45.136V45.232C164.164 45.232 164.548 45.2 164.996 45.136C165.508 45.008 166.084 44.944 166.724 44.944C169.22 44.944 171.236 45.584 172.772 46.864C174.308 48.144 175.076 49.84 175.076 51.952C175.076 53.936 174.5 56.08 173.348 58.384C172.196 60.624 170.948 62.448 169.604 63.856C167.492 65.968 165.252 67.824 162.884 69.424C160.58 70.96 158.596 71.728 156.932 71.728C155.908 71.728 155.204 71.44 154.82 70.864C154.5 70.352 154.34 69.712 154.34 68.944C154.34 67.856 154.82 66.768 155.78 65.68C156.74 64.592 157.7 63.664 158.66 62.896C159.748 62 160.868 61.168 162.02 60.4C163.236 59.632 164.26 58.992 165.092 58.48C165.54 58.16 165.956 57.872 166.34 57.616C166.788 57.36 167.172 57.232 167.492 57.232C167.684 57.232 167.78 57.328 167.78 57.52C167.78 57.648 167.396 57.968 166.628 58.48C165.924 58.992 165.316 59.44 164.804 59.824C164.42 60.144 163.748 60.72 162.788 61.552C161.828 62.32 160.804 63.216 159.716 64.24C158.692 65.2 157.796 66.192 157.028 67.216C156.26 68.24 155.876 69.136 155.876 69.904C156.9 69.904 158.02 69.488 159.236 68.656C160.516 67.76 161.764 66.736 162.98 65.584C164.26 64.432 165.348 63.472 166.244 62.704C167.076 61.936 168.068 60.88 169.22 59.536C170.372 58.192 171.396 56.752 172.292 55.216C173.188 53.68 173.636 52.272 173.636 50.992C173.636 49.328 172.996 48.112 171.716 47.344C170.5 46.512 169.028 46.096 167.3 46.096C166.724 46.096 165.988 46.16 165.092 46.288C164.196 46.416 163.652 46.544 163.46 46.672C162.052 48.848 160.708 51.056 159.428 53.296C158.148 55.536 156.964 57.84 155.876 60.208C154.084 64.048 152.644 67.952 151.556 71.92C150.532 75.888 149.86 80.176 149.54 84.784C149.476 85.872 149.38 87.024 149.252 88.24C149.188 89.456 149.188 90.672 149.252 91.888C149.316 92.528 149.444 93.552 149.636 94.96C149.828 96.368 150.148 97.648 150.596 98.8C151.044 99.952 151.652 100.528 152.42 100.528C152.484 100.528 152.612 100.528 152.804 100.528C152.996 100.528 153.092 100.56 153.092 100.624V100.912C152.644 101.168 152.228 101.296 151.844 101.296Z" fill="white"/>
</svg>
